<svg width="19" height="14" viewBox="0 0 19 14" fill="none" xmlns="http://www.w3.org/2000/svg">
<g clip-path="url(#clip0_232_152)">
<path d="M1.98582 3.2293C1.91383 3.32367 1.88089 3.42962 1.89054 3.53579C1.90019 3.64195 1.95205 3.74432 2.04058 3.83191L9.74098 11.4155C9.81972 11.493 9.92484 11.5563 10.0473 11.6C10.1698 11.6438 10.306 11.6666 10.4443 11.6666C10.5826 11.6666 10.7188 11.6438 10.8412 11.6C10.9637 11.5563 11.0688 11.493 11.1476 11.4155L18.848 3.83191C18.9368 3.74439 18.9888 3.64197 18.9984 3.53575C19.008 3.42952 18.9747 3.32353 18.9023 3.22926C18.8299 3.13499 18.721 3.05603 18.5874 3.00092C18.4539 2.94581 18.3008 2.91666 18.1447 2.91663L2.74388 2.91663C2.5877 2.91661 2.4345 2.94574 2.30087 3.00085C2.16724 3.05597 2.05829 3.13498 1.98582 3.2293Z" fill="white"/>
</g>
<defs>
<clipPath id="clip0_232_152">
<rect width="14" height="18.6667" fill="white" transform="translate(19) rotate(90)"/>
</clipPath>
</defs>
</svg>
