<svg width="17" height="17" viewBox="0 0 17 17" fill="none" xmlns="http://www.w3.org/2000/svg">
<path d="M7.08336 13.4584C6.91786 13.4587 6.75746 13.4011 6.63003 13.2955C6.5583 13.236 6.49901 13.163 6.45555 13.0806C6.4121 12.9981 6.38532 12.908 6.37677 12.8152C6.36822 12.7224 6.37805 12.6289 6.40571 12.5399C6.43336 12.4509 6.4783 12.3683 6.53794 12.2967L9.71128 8.50004L6.65128 4.69629C6.59244 4.62384 6.5485 4.54047 6.52198 4.45098C6.49547 4.36149 6.4869 4.26764 6.49678 4.17483C6.50665 4.08201 6.53477 3.99207 6.57952 3.91016C6.62427 3.82825 6.68476 3.75599 6.75753 3.69754C6.83081 3.63306 6.91664 3.58442 7.00962 3.55467C7.10259 3.52493 7.20072 3.51473 7.29782 3.52471C7.39493 3.53468 7.48893 3.56462 7.57392 3.61265C7.6589 3.66068 7.73305 3.72575 7.79169 3.80379L11.2129 8.05379C11.3171 8.18053 11.3741 8.33951 11.3741 8.50358C11.3741 8.66765 11.3171 8.82663 11.2129 8.95337L7.67128 13.2034C7.60022 13.2891 7.50995 13.3569 7.4078 13.4012C7.30566 13.4455 7.1945 13.4651 7.08336 13.4584Z" fill="#1094FF"/>
</svg>
