<svg width="33" height="33" viewBox="0 0 33 33" fill="none" xmlns="http://www.w3.org/2000/svg">
<path fill-rule="evenodd" clip-rule="evenodd" d="M16.5 1.375C11.4372 1.375 6.87499 4.90188 6.87499 9.625V15.8661C6.87499 16.7485 6.61376 17.6111 6.12424 18.3453L3.09924 22.8814C2.88994 23.1959 2.76992 23.5613 2.75199 23.9387C2.73406 24.316 2.81888 24.6912 2.99742 25.0242C3.17596 25.3571 3.44152 25.6353 3.76577 25.8292C4.09003 26.0231 4.46082 26.1253 4.83862 26.125H11.6875C11.6875 26.757 11.812 27.3828 12.0538 27.9667C12.2957 28.5505 12.6502 29.0811 13.097 29.528C13.5439 29.9748 14.0745 30.3293 14.6583 30.5712C15.2422 30.813 15.868 30.9375 16.5 30.9375C17.132 30.9375 17.7578 30.813 18.3417 30.5712C18.9255 30.3293 19.4561 29.9748 19.9029 29.528C20.3498 29.0811 20.7043 28.5505 20.9462 27.9667C21.188 27.3828 21.3125 26.757 21.3125 26.125H28.1627C28.5405 26.125 28.9112 26.0224 29.2353 25.8283C29.5594 25.6341 29.8247 25.3557 30.0029 25.0226C30.1812 24.6895 30.2657 24.3143 30.2475 23.937C30.2292 23.5597 30.1089 23.1943 29.8994 22.88L26.8744 18.3453C26.3853 17.611 26.1246 16.7484 26.125 15.8661V9.625C26.125 4.90188 21.5614 1.375 16.5 1.375ZM8.93749 9.625C8.93749 6.3745 12.2141 3.4375 16.5 3.4375C20.7859 3.4375 24.0625 6.3745 24.0625 9.625V15.8661C24.0625 17.1559 24.4447 18.4154 25.1597 19.4892L28.1834 24.0254C28.1862 24.0294 28.1876 24.0342 28.1875 24.0391L28.1861 24.0474L28.1806 24.0556L28.1724 24.0611L28.1627 24.0625H4.83724L4.82762 24.0611L4.81937 24.0556L4.81387 24.0474L4.81249 24.0378L4.81662 24.024L7.84162 19.4892C8.55654 18.4162 8.93785 17.1555 8.93749 15.8661V9.625ZM19.25 26.125H13.75C13.75 26.8543 14.0397 27.5538 14.5555 28.0695C15.0712 28.5853 15.7706 28.875 16.5 28.875C17.2293 28.875 17.9288 28.5853 18.4445 28.0695C18.9603 27.5538 19.25 26.8543 19.25 26.125Z" fill="white"/>
</svg>
