<svg width="21" height="21" viewBox="0 0 21 21" fill="none" xmlns="http://www.w3.org/2000/svg">
<path d="M18.5999 9.59175C19.0147 10.1343 19.0147 10.8666 18.5999 11.4083C17.2936 13.1136 14.1593 16.625 10.5001 16.625C6.84082 16.625 3.70657 13.1136 2.4002 11.4083C2.19841 11.1485 2.08887 10.8289 2.08887 10.5C2.08887 10.1711 2.19841 9.85151 2.4002 9.59175C3.70657 7.88638 6.84082 4.375 10.5001 4.375C14.1593 4.375 17.2936 7.88638 18.5999 9.59175V9.59175Z" stroke="#868686" stroke-width="0.976744" stroke-linecap="round" stroke-linejoin="round"/>
<path d="M10.5 13.125C11.9497 13.125 13.125 11.9497 13.125 10.5C13.125 9.05025 11.9497 7.875 10.5 7.875C9.05025 7.875 7.875 9.05025 7.875 10.5C7.875 11.9497 9.05025 13.125 10.5 13.125Z" stroke="#868686" stroke-width="0.976744" stroke-linecap="round" stroke-linejoin="round"/>
</svg>
