<svg width="16" height="16" viewBox="0 0 16 16" fill="none" xmlns="http://www.w3.org/2000/svg">
<path d="M8.66667 14V15.6667L6.66667 14.3334L4.66667 15.6667V14H4.33333C3.71449 14 3.121 13.7542 2.68342 13.3166C2.24583 12.879 2 12.2855 2 11.6667V3.33337C2 2.80294 2.21071 2.29423 2.58579 1.91916C2.96086 1.54409 3.46957 1.33337 4 1.33337H13.3333C13.5101 1.33337 13.6797 1.40361 13.8047 1.52864C13.9298 1.65366 14 1.82323 14 2.00004V13.3334C14 13.5102 13.9298 13.6798 13.8047 13.8048C13.6797 13.9298 13.5101 14 13.3333 14H8.66667ZM8.66667 12.6667H12.6667V10.6667H4.33333C4.06812 10.6667 3.81376 10.7721 3.62623 10.9596C3.43869 11.1471 3.33333 11.4015 3.33333 11.6667C3.33333 11.9319 3.43869 12.1863 3.62623 12.3738C3.81376 12.5613 4.06812 12.6667 4.33333 12.6667H4.66667V11.3334H8.66667V12.6667ZM12.6667 9.33337V2.66671H4V9.35671C4.11042 9.34104 4.22181 9.33324 4.33333 9.33337H12.6667ZM4.66667 3.33337H6V4.66671H4.66667V3.33337ZM4.66667 5.33337H6V6.66671H4.66667V5.33337ZM4.66667 7.33337H6V8.66671H4.66667V7.33337Z" fill="#707070"/>
</svg>
