<svg width="27" height="27" viewBox="0 0 27 27" fill="none" xmlns="http://www.w3.org/2000/svg">
<g clip-path="url(#clip0_279_580)">
<path d="M8.96959 4.02705C8.9248 4.02687 8.88041 4.03554 8.83898 4.05256C8.79755 4.06957 8.75989 4.09461 8.72816 4.12621C8.69642 4.15782 8.67124 4.19538 8.65406 4.23675C8.63688 4.27811 8.62804 4.32246 8.62804 4.36725C8.62804 4.5549 8.78059 4.7061 8.96959 4.7061H13.9821C14.1711 4.7061 14.3237 4.5549 14.3237 4.36725C14.3237 4.32246 14.3148 4.27811 14.2977 4.23675C14.2805 4.19538 14.2553 4.15782 14.2236 4.12621C14.1918 4.09461 14.1542 4.06957 14.1127 4.05256C14.0713 4.03554 14.0269 4.02687 13.9821 4.02705H8.96959ZM13.9821 2.21535C14.973 2.21535 15.8087 2.87685 16.0665 3.78135L19.0028 3.7827C19.8411 3.7881 20.5175 4.05945 20.936 4.644C21.2951 5.1462 21.4382 5.7915 21.4017 6.51645L21.3977 24.084C21.4544 24.8292 21.314 25.488 20.9549 26.0347C20.5337 26.6733 19.8465 26.9932 18.9947 27.0013H4.23919C3.21319 26.9608 2.45314 26.7192 1.97794 26.1792C1.53649 25.6783 1.34344 24.9912 1.35154 24.1542V6.534C1.33399 5.724 1.55944 5.0409 2.05084 4.536C2.55844 4.0176 3.30904 3.7881 4.27429 3.78135H6.88654C7.14304 2.87685 7.97869 2.21535 8.96959 2.21535H13.9821ZM13.9821 6.5178H8.96959C8.23249 6.5178 7.58314 6.1533 7.19164 5.5944H4.27969C3.76264 5.5971 3.46699 5.6889 3.35899 5.7996C3.23614 5.92515 3.16459 6.1398 3.17269 6.51645V24.1609C3.16864 24.5997 3.24289 24.8656 3.34819 24.9844C3.42109 25.0668 3.73429 25.1667 4.27294 25.1883H18.9879C19.2579 25.1856 19.3659 25.1343 19.428 25.0411C19.5509 24.8548 19.6076 24.5903 19.5765 24.1528L19.5779 6.47325C19.5968 6.0777 19.5414 5.82255 19.4483 5.69295C19.4132 5.6457 19.2917 5.59575 18.9947 5.5944H15.7587C15.3672 6.1533 14.7179 6.5178 13.9808 6.5178H13.9821ZM23.2202 0C24.5621 0 25.6502 1.08135 25.6502 2.4165V21.4272C25.6502 22.761 24.5621 23.8437 23.2202 23.8437H20.5769V22.0306H23.2188C23.555 22.0306 23.8263 21.7606 23.8263 21.4272V2.41515C23.8256 2.25462 23.7613 2.10093 23.6474 1.9878C23.5335 1.87467 23.3794 1.81134 23.2188 1.8117H13.0182C12.6834 1.8117 12.4107 2.0817 12.4107 2.41515V2.6271H10.5882V2.41515C10.5882 1.08135 11.6763 0 13.0182 0H23.2202ZM11.0648 15.8638C11.5683 15.8638 11.976 16.2688 11.976 16.7697C11.976 17.2692 11.5683 17.6755 11.0648 17.6755H5.59594C5.47662 17.6761 5.35837 17.6531 5.24794 17.6079C5.13751 17.5628 5.03705 17.4963 4.95231 17.4123C4.86756 17.3283 4.80019 17.2285 4.75404 17.1184C4.70789 17.0084 4.68387 16.8904 4.68334 16.771C4.68334 16.2702 5.09239 15.8638 5.59594 15.8638H11.0648ZM16.535 12.2404C17.0372 12.2404 17.4462 12.6454 17.4462 13.1463C17.4462 13.6458 17.0372 14.0521 16.535 14.0521H5.59594C5.47662 14.0527 5.35837 14.0297 5.24794 13.9845C5.13751 13.9394 5.03705 13.8729 4.95231 13.7889C4.86756 13.7049 4.80019 13.6051 4.75404 13.495C4.70789 13.385 4.68387 13.267 4.68334 13.1476C4.68334 12.6468 5.09239 12.2404 5.59594 12.2404H16.535ZM16.535 8.61705C17.0372 8.61705 17.4462 9.02205 17.4462 9.5229C17.4459 9.64221 17.422 9.76029 17.376 9.87038C17.3301 9.98048 17.2628 10.0804 17.1782 10.1646C17.0936 10.2487 16.9932 10.3153 16.8829 10.3606C16.7725 10.406 16.6543 10.4291 16.535 10.4287H5.59594C5.47662 10.4293 5.35837 10.4063 5.24794 10.3611C5.13751 10.316 5.03705 10.2495 4.95231 10.1655C4.86756 10.0815 4.80019 9.98166 4.75404 9.87163C4.70789 9.7616 4.68387 9.64356 4.68334 9.52425C4.68334 9.0234 5.09239 8.61705 5.59594 8.61705H16.535Z" fill="#008DFF"/>
</g>
<defs>
<clipPath id="clip0_279_580">
<rect width="27" height="27" fill="white"/>
</clipPath>
</defs>
</svg>
