<svg width="17" height="17" viewBox="0 0 17 17" fill="none" xmlns="http://www.w3.org/2000/svg">
<path d="M3.54163 7.08336C3.5413 6.91786 3.59894 6.75746 3.70454 6.63003C3.76401 6.5583 3.83704 6.49901 3.91945 6.45555C4.00186 6.4121 4.09204 6.38532 4.18481 6.37677C4.27759 6.36822 4.37114 6.37805 4.46011 6.40571C4.54908 6.43336 4.63172 6.4783 4.70329 6.53794L8.49996 9.71128L12.3037 6.65128C12.3762 6.59244 12.4595 6.5485 12.549 6.52198C12.6385 6.49547 12.7324 6.4869 12.8252 6.49678C12.918 6.50665 13.0079 6.53477 13.0898 6.57952C13.1717 6.62427 13.244 6.68476 13.3025 6.75753C13.3669 6.83081 13.4156 6.91664 13.4453 7.00962C13.4751 7.10259 13.4853 7.20072 13.4753 7.29782C13.4653 7.39493 13.4354 7.48893 13.3874 7.57392C13.3393 7.6589 13.2742 7.73305 13.1962 7.79169L8.94621 11.2129C8.81947 11.3171 8.66049 11.3741 8.49642 11.3741C8.33235 11.3741 8.17337 11.3171 8.04663 11.2129L3.79663 7.67128C3.71091 7.60022 3.64314 7.50995 3.59884 7.4078C3.55453 7.30565 3.53493 7.1945 3.54163 7.08336Z" fill="#1094FF"/>
</svg>
