<svg width="9" height="12" viewBox="0 0 9 12" fill="none" xmlns="http://www.w3.org/2000/svg">
<path d="M0.689641 10.7241H8.13792C8.24132 10.7239 8.34105 10.7624 8.41746 10.8321C8.49387 10.9017 8.54144 10.9975 8.55078 11.1005C8.56012 11.2034 8.53057 11.3062 8.46794 11.3885C8.40531 11.4708 8.31415 11.5266 8.2124 11.545L8.13792 11.5517H0.689641C0.586238 11.5518 0.48651 11.5133 0.410097 11.4436C0.333683 11.374 0.286122 11.2782 0.276779 11.1752C0.267436 11.0723 0.296988 10.9695 0.359616 10.8872C0.422244 10.805 0.513409 10.7491 0.615159 10.7307L0.689641 10.7241ZM4.3393 0.799651L4.41378 0.79303C4.51063 0.792998 4.60442 0.826937 4.67882 0.888938C4.75322 0.950939 4.80352 1.03707 4.82095 1.13234L4.82757 1.20682V8.48296L7.04716 6.2642C7.11563 6.19565 7.20597 6.15331 7.30246 6.14453C7.39895 6.13576 7.49545 6.16112 7.57516 6.2162L7.63309 6.2642C7.70151 6.33277 7.74371 6.42317 7.75233 6.51966C7.76095 6.61614 7.73544 6.71259 7.68026 6.7922L7.63226 6.84931L4.70674 9.77565C4.63817 9.84407 4.54777 9.88627 4.45129 9.89489C4.35481 9.90351 4.25836 9.878 4.17874 9.82282L4.12081 9.77565L1.1953 6.84931C1.12199 6.77632 1.07867 6.67852 1.07389 6.57519C1.0691 6.47185 1.1032 6.37047 1.16946 6.29103C1.23571 6.21159 1.32932 6.15984 1.43183 6.14599C1.53435 6.13214 1.63833 6.15719 1.7233 6.2162L1.7804 6.2642L3.99999 8.48296V1.20682C3.99995 1.10997 4.03389 1.01618 4.09589 0.941781C4.1579 0.86738 4.24403 0.817083 4.3393 0.799651Z" fill="#008DFF"/>
</svg>
