<svg width="12" height="12" viewBox="0 0 12 12" fill="none" xmlns="http://www.w3.org/2000/svg">
<path d="M8.39338 0.757589C8.57975 0.567489 8.80196 0.416214 9.04715 0.312511C9.29234 0.208807 9.55566 0.15473 9.82188 0.153406C10.0881 0.152083 10.3519 0.203538 10.5981 0.304799C10.8444 0.406059 11.0681 0.555116 11.2563 0.743354C11.4446 0.931592 11.5937 1.15528 11.6949 1.40148C11.7962 1.64768 11.8477 1.91151 11.8464 2.17773C11.8451 2.44395 11.7911 2.70727 11.6874 2.95248C11.5837 3.19768 11.4325 3.4199 11.2424 3.6063L10.5993 4.24971L7.74996 1.40071L8.39308 0.757589H8.39338ZM7.23458 1.91638L1.34438 7.80746C1.12216 8.02963 0.963796 8.30747 0.885875 8.61188L0.178 11.3783C0.162318 11.4396 0.162861 11.504 0.179574 11.565C0.196288 11.626 0.228597 11.6817 0.273325 11.7264C0.318053 11.7712 0.37366 11.8035 0.434677 11.8203C0.495694 11.837 0.560022 11.8376 0.621334 11.822L3.38838 11.115C3.69302 11.037 3.97108 10.8786 4.19338 10.6562L10.0836 4.76538L7.23458 1.91638Z" fill="#FF5C00"/>
</svg>
