<svg width="17" height="17" viewBox="0 0 17 17" fill="none" xmlns="http://www.w3.org/2000/svg">
<path d="M11.6307 5.56451C11.7792 5.43576 11.9768 5.36457 12.1818 5.36599C12.3868 5.3674 12.5832 5.4413 12.7296 5.57208C12.8759 5.70287 12.9608 5.88032 12.9662 6.06699C12.9716 6.25365 12.8972 6.43494 12.7586 6.57258L8.55251 11.3633C8.48018 11.4343 8.39289 11.4912 8.29585 11.5307C8.19882 11.5702 8.09402 11.5915 7.98774 11.5933C7.88146 11.5951 7.77587 11.5774 7.6773 11.5412C7.57872 11.5049 7.48917 11.451 7.41401 11.3825L4.62469 8.84218C4.54701 8.77626 4.4847 8.69677 4.44149 8.60844C4.39828 8.52012 4.37504 8.42477 4.37317 8.32809C4.3713 8.23141 4.39083 8.13537 4.43059 8.04571C4.47035 7.95605 4.52954 7.87461 4.60462 7.80623C4.67969 7.73786 4.76912 7.68396 4.86757 7.64774C4.96601 7.61153 5.07146 7.59374 5.17762 7.59545C5.28378 7.59715 5.38847 7.61831 5.48545 7.65767C5.58244 7.69702 5.66972 7.75377 5.7421 7.82451L7.94953 9.83393L11.6106 5.58563C11.6172 5.57824 11.6243 5.57119 11.6317 5.56451H11.6307Z" fill="white"/>
</svg>
