<svg width="24" height="23" viewBox="0 0 24 23" fill="none" xmlns="http://www.w3.org/2000/svg">
<path d="M1 13.7717C0.999385 12.7855 1.28042 11.8153 1.81655 10.953C2.35268 10.0907 3.1262 9.36474 4.064 8.84366C4.31151 7.12039 5.2538 5.5367 6.71452 4.38898C8.17524 3.24126 10.0543 2.60815 12 2.60815C13.9457 2.60815 15.8248 3.24126 17.2855 4.38898C18.7462 5.5367 19.6885 7.12039 19.936 8.84366C21.0992 9.48986 22.0041 10.4477 22.5213 11.5805C23.0385 12.7132 23.1417 13.9629 22.8161 15.1512C22.4906 16.3394 21.7528 17.4054 20.7083 18.197C19.6638 18.9885 18.366 19.4652 17 19.5588L7 19.5758C3.644 19.3311 1 16.8273 1 13.7717ZM16.848 17.7783C17.7938 17.7134 18.6925 17.3832 19.4156 16.835C20.1387 16.2867 20.6493 15.5484 20.8745 14.7256C21.0996 13.9028 21.0278 13.0374 20.6692 12.2532C20.3107 11.469 19.6837 10.806 18.878 10.359L18.071 9.90982L17.951 9.06868C17.7641 7.77723 17.0569 6.59075 15.9616 5.73099C14.8663 4.87123 13.4578 4.39704 11.9995 4.39704C10.5412 4.39704 9.13272 4.87123 8.03742 5.73099C6.94213 6.59075 6.23493 7.77723 6.048 9.06868L5.928 9.90982L5.123 10.359C4.3173 10.806 3.69038 11.4689 3.3318 12.253C2.97321 13.0371 2.90129 13.9024 3.12631 14.7252C3.35133 15.548 3.86177 16.2863 4.58475 16.8346C5.30773 17.3829 6.20625 17.7132 7.152 17.7783L7.325 17.7899H16.675L16.848 17.7783ZM13 12.4323V16.0041H11V12.4323H8L12 7.9677L16 12.4323H13Z" fill="#008DFF"/>
</svg>
