<svg width="24" height="22" viewBox="0 0 24 22" fill="none" xmlns="http://www.w3.org/2000/svg">
<path d="M4 17.8586C3.45 17.8586 2.97933 17.6839 2.588 17.3345C2.196 16.9844 2 16.5639 2 16.0728V5.35763C2 4.86652 2.196 4.44625 2.588 4.09682C2.97933 3.74679 3.45 3.57178 4 3.57178H9.175C9.44167 3.57178 9.696 3.61642 9.938 3.70572C10.1793 3.79501 10.3917 3.92151 10.575 4.08521L12 5.35763H20C20.55 5.35763 21.021 5.53265 21.413 5.88267C21.8043 6.23211 22 6.65238 22 7.14349V16.0728C22 16.5639 21.8043 16.9844 21.413 17.3345C21.021 17.6839 20.55 17.8586 20 17.8586H4ZM16 16.0728H20V7.14349H16V8.92934H18V10.7152H16V12.501H18V14.2869H16V16.0728ZM4 16.0728H14V14.2869H16V12.501H14V10.7152H16V8.92934H14V7.14349H11.175L9.175 5.35763H4V16.0728ZM4 7.14349V5.35763V16.0728V7.14349Z" fill="#008DFF"/>
</svg>
