<svg width="24" height="22" viewBox="0 0 24 22" fill="none" xmlns="http://www.w3.org/2000/svg">
<path d="M4 14.8586C3.45 14.8586 2.97933 14.6839 2.588 14.3345C2.196 13.9844 2 13.5639 2 13.0728V2.35763C2 1.86652 2.196 1.44625 2.588 1.09682C2.97933 0.746791 3.45 0.571777 4 0.571777H9.175C9.44167 0.571777 9.696 0.616424 9.938 0.705717C10.1793 0.795009 10.3917 0.921507 10.575 1.08521L12 2.35763H20C20.55 2.35763 21.021 2.53265 21.413 2.88267C21.8043 3.23211 22 3.65238 22 4.14349V13.0728C22 13.5639 21.8043 13.9844 21.413 14.3345C21.021 14.6839 20.55 14.8586 20 14.8586H4ZM16 13.0728H20V4.14349H16V5.92934H18V7.71519H16V9.50105H18V11.2869H16V13.0728ZM4 13.0728H14V11.2869H16V9.50105H14V7.71519H16V5.92934H14V4.14349H11.175L9.175 2.35763H4V13.0728ZM4 4.14349V2.35763V13.0728V4.14349Z" fill="#008DFF"/>
</svg>
